<svg version="1.0" xmlns="http://www.w3.org/2000/svg" width="66.667" height="66.667" viewBox="0 0 50 50"><path d="M29.1 3c-2.8 2.4-4.4 2.5-6.1.5-.7-.8-1.9-1.5-2.7-1.5-2.6 0-8.4 5.2-10.4 9.3-2.3 4.9-2.4 6.7-.3 6.7 1.1 0 1.3.6.9 1.9-.3 1.2.3 3.7 1.5 6 3.2 6.4 2.8 7.7-3.8 11C3 39.5 0 42.8 0 46c0 .6 8 1 20.1 1h20.1l-.4-2.5c-.5-2.4-.3-2.5 4.8-2.5 4.3 0 5.4-.3 5.4-1.6 0-1.9-4.5-6.3-8.8-8.6-3.5-1.9-4.1-4.3-1.7-7.4.8-1 1.5-3.4 1.5-5.2 0-2.2.5-3.2 1.5-3.2 1.9 0 1.9-.9-.4-6.2C40.3 5.6 35.4 1 32.8 1c-.7.1-2.4 1-3.7 2zM34 7c0 2.2.5 4 1 4 .6 0 1-1.5 1-3.3l.1-3.2L38 6.9c1.1 1.3 2 3.2 2 4.2s.6 1.9 1.3 1.9c.8 0 .7.4-.3 1-2.4 1.6-8.6 1.2-10.1-.7-1.1-1.3-1.1-1.7-.1-2 .7-.3 1.2-2.1 1.2-4.4 0-2.1.5-3.9 1-3.9.6 0 1 1.8 1 4zM21 8c0 2.2.5 4 1 4 .6 0 1-1.3 1-3 0-4.1 2.2-3 4.7 2.5 2.4 5.3 2.1 5.5-7.7 5.5s-10.1-.2-7.7-5.5C14.8 6 17 4.9 17 9c0 1.7.5 3 1 3 .6 0 1-1.8 1-4s.5-4 1-4c.6 0 1 1.8 1 4zm9-.3c-.1 2.4-.2 2.6-1.1 1-.5-.9-.7-2.2-.4-2.7 1-1.7 1.5-1.1 1.5 1.7zm9 10.8c0 .9-.7 3.2-1.5 5.2-2.2 5.3-1.9 7.2 1.7 9.1 1.7.9 4.5 2.9 6.2 4.4l3.1 2.7-5.3.1c-3.9 0-6.8-.8-11.2-3-6.8-3.4-7.2-4.7-3.9-11.1 1.1-2.3 1.8-4.7 1.5-5.5-.7-1.8 2.1-3.3 6.2-3.4 2.2 0 3.2.5 3.2 1.5zm-11.4 1.9c.3.7-.5 2.9-1.6 4.9-1.3 2.2-2 4.8-1.8 6.9.3 2.9.9 3.6 6 6 3.1 1.5 6.2 3.6 6.8 4.8 1.1 2 .9 2-16.5 2-16.3 0-17.6-.1-17.3-1.7.2-1 2.9-3.1 6.3-4.8 5.3-2.7 6-3.4 6.3-6.3.2-2.1-.5-4.7-1.8-6.9-1.1-2-1.9-4.2-1.6-4.9.8-2 14.4-2 15.2 0z"/></svg>