<?xml version="1.0" standalone="no"?>
<!DOCTYPE svg PUBLIC "-//W3C//DTD SVG 20010904//EN"
 "http://www.w3.org/TR/2001/REC-SVG-20010904/DTD/svg10.dtd">
<svg version="1.0" xmlns="http://www.w3.org/2000/svg"
 width="50.000000pt" height="50.000000pt" viewBox="0 0 50.000000 50.000000"
 preserveAspectRatio="xMidYMid meet">

<g transform="translate(0.000000,50.000000) scale(0.100000,-0.100000)"
fill="#000000" stroke="none">
<path d="M291 470 c-28 -24 -44 -25 -61 -5 -7 8 -19 15 -27 15 -26 0 -84 -52
-104 -93 -23 -49 -24 -67 -3 -67 11 0 13 -6 9 -19 -3 -12 3 -37 15 -60 32 -64
28 -77 -38 -110 -52 -26 -82 -59 -82 -91 0 -6 80 -10 201 -10 l201 0 -4 25
c-5 24 -3 25 48 25 43 0 54 3 54 16 0 19 -45 63 -88 86 -35 19 -41 43 -17 74
8 10 15 34 15 52 0 22 5 32 15 32 19 0 19 9 -4 62 -18 42 -67 88 -93 88 -7 -1
-24 -10 -37 -20z m49 -40 c0 -22 5 -40 10 -40 6 0 10 15 10 33 l1 32 19 -24
c11 -13 20 -32 20 -42 0 -10 6 -19 13 -19 8 0 7 -4 -3 -10 -24 -16 -86 -12
-101 7 -11 13 -11 17 -1 20 7 3 12 21 12 44 0 21 5 39 10 39 6 0 10 -18 10
-40z m-130 -10 c0 -22 5 -40 10 -40 6 0 10 13 10 30 0 41 22 30 47 -25 24 -53
21 -55 -77 -55 -98 0 -101 2 -77 55 25 55 47 66 47 25 0 -17 5 -30 10 -30 6 0
10 18 10 40 0 22 5 40 10 40 6 0 10 -18 10 -40z m90 3 c-1 -24 -2 -26 -11 -10
-5 9 -7 22 -4 27 10 17 15 11 15 -17z m90 -108 c0 -9 -7 -32 -15 -52 -22 -53
-19 -72 17 -91 17 -9 45 -29 62 -44 l31 -27 -53 -1 c-39 0 -68 8 -112 30 -68
34 -72 47 -39 111 11 23 18 47 15 55 -7 18 21 33 62 34 22 0 32 -5 32 -15z
m-114 -19 c3 -7 -5 -29 -16 -49 -13 -22 -20 -48 -18 -69 3 -29 9 -36 60 -60
31 -15 62 -36 68 -48 11 -20 9 -20 -165 -20 -163 0 -176 1 -173 17 2 10 29 31
63 48 53 27 60 34 63 63 2 21 -5 47 -18 69 -11 20 -19 42 -16 49 8 20 144 20
152 0z"/>
</g>
</svg>
